# 3ds Max Wavefront OBJ Exporter v0.97b - (c)2007 guruware
# File Created: 17.06.2018 13:22:25

mtllib cloud.mtl

#
# object Sphere012
#

v  -129.4732 77.7980 -7.8231
v  -130.4679 80.8365 -5.5624
v  -124.9960 80.4405 -4.9878
v  -125.2945 78.3572 -4.9120
v  -126.1784 75.8072 -5.3795
v  -129.2051 74.2840 -6.1163
v  -132.6017 74.6800 -6.6909
v  -134.3786 76.7633 -6.7667
v  -133.4948 79.3133 -6.2992
v  -131.6066 81.6196 -0.6584
v  -124.7277 81.0595 0.1543
v  -122.2151 78.1134 0.2614
v  -125.5403 74.5070 -0.3997
v  -129.8207 72.3530 -1.4417
v  -134.6242 72.9131 -2.2544
v  -137.1371 75.8592 -5.0114
v  -135.8871 79.4656 -1.7004
v  -132.2222 79.6886 4.0162
v  -128.8256 79.2926 4.5908
v  -127.0488 77.2094 4.6665
v  -127.9326 74.6592 4.1991
v  -130.9594 73.1361 3.4623
v  -134.3560 73.5322 2.8877
v  -136.1328 75.6154 2.8119
v  -135.2489 78.1655 3.2794
v  -131.9541 76.1746 5.7230
v  -136.3351 78.4748 -3.3519
v  -137.7141 79.8069 -1.2127
v  -134.9940 79.2490 -0.5584
v  -134.0444 77.1727 -1.5467
v  -135.8150 75.6544 -3.1893
v  -138.5350 76.2122 -3.8437
v  -139.4847 78.2884 -2.8552
v  -138.5732 78.3182 1.0892
v  -135.8530 77.7604 1.7435
v  -134.9033 75.6842 0.7551
v  -136.6738 74.1658 -0.8874
v  -139.3940 74.7236 -1.5417
v  -140.3437 76.7999 -0.5534
v  -138.0529 75.4977 1.2519
v  -126.6512 79.4850 -8.9257
v  -126.4793 81.5044 -7.1731
v  -124.5125 81.2053 -7.9591
v  -122.9525 79.6594 -8.5042
v  -124.2305 77.8908 -8.6686
v  -126.1790 76.9352 -8.3564
v  -128.2444 77.3525 -7.7502
v  -129.2168 78.8984 -7.2053
v  -128.5264 80.6672 -7.0407
v  -125.9345 81.4521 -4.4299
v  -123.0373 81.5492 -5.4609
v  -121.1186 79.3197 -6.1876
v  -122.0948 76.8183 -6.4203
v  -125.4382 75.4670 -5.9787
v  -128.3590 76.0573 -5.1214
v  -129.7341 78.2435 -4.3508
v  -128.7579 80.1722 -4.1181
v  -125.2614 80.0552 -2.1820
v  -123.1960 80.2105 -2.7882
v  -122.2236 78.6646 -3.3331
v  -122.9140 76.8959 -3.4977
v  -124.8625 75.9404 -3.1853
v  -126.9278 76.3578 -2.5793
v  -127.9001 77.9036 -2.0342
v  -127.2099 79.6724 -1.8697
v  -124.7892 78.0780 -1.6127
v  -124.9764 74.9676 -1.9143
v  -124.9764 78.9558 -1.9380
v  -121.4262 77.7404 -1.3438
v  -120.5493 75.0094 -0.0086
v  -123.0061 72.8193 1.0621
v  -126.9465 72.8193 1.0621
v  -129.4033 75.0094 -0.0086
v  -128.5265 77.7404 -1.3438
v  -124.9764 81.4608 1.1652
v  -120.5493 79.9452 1.9062
v  -119.4560 76.5397 3.5712
v  -122.5196 73.8088 4.9064
v  -127.4332 73.8088 4.9064
v  -130.4967 76.5397 3.5712
v  -129.4033 79.9452 1.9062
v  -124.9764 79.0050 6.3433
v  -121.6227 76.9863 -5.4211
v  -121.6227 79.0176 -4.5797
v  -119.7620 78.4227 -4.5797
v  -118.9911 76.9863 -4.5797
v  -119.7620 75.5500 -4.5797
v  -121.6227 74.9550 -4.5797
v  -123.4834 75.5500 -4.5797
v  -124.2541 76.9863 -4.5797
v  -123.4834 78.4227 -4.5797
v  -121.6227 79.8590 -2.5484
v  -118.9911 79.0176 -2.5484
v  -117.9013 76.9863 -2.5484
v  -118.9911 74.9550 -2.5484
v  -121.6227 74.1136 -2.5484
v  -124.2541 74.9550 -2.5484
v  -125.3441 76.9863 -2.5484
v  -124.2541 79.0176 -2.5484
v  -121.6227 79.0176 -0.5170
v  -119.7620 78.4227 -0.5170
v  -118.9911 76.9863 -0.5170
v  -119.7620 75.5500 -0.5170
v  -121.6227 74.9550 -0.5170
v  -123.4834 75.5500 -0.5170
v  -124.2541 76.9863 -0.5170
v  -123.4834 78.4227 -0.5170
v  -121.6227 76.9863 0.3243
# 108 vertices

vn 0.1666 0.4942 -0.8532
vn 0.5618 -0.0269 -0.8268
vn 0.5577 0.0177 -0.8298
vn 0.3857 -0.2365 -0.8918
vn 0.0834 -0.2896 -0.9535
vn -0.1722 -0.1104 -0.9789
vn -0.2312 0.1960 -0.9530
vn -0.0592 0.4502 -0.8910
vn 0.1968 0.9549 -0.2222
vn 0.1825 0.9611 -0.2073
vn 0.8297 0.5378 -0.1495
vn 0.8436 -0.0417 -0.5354
vn 0.7576 -0.4087 -0.5089
vn 0.9645 -0.1617 -0.2086
vn 0.5718 -0.7420 -0.3501
vn -0.1184 -0.8631 -0.4910
vn -0.4898 -0.6676 -0.5607
vn -0.4254 -0.2746 -0.8623
vn -0.5716 0.5283 -0.6278
vn -0.8367 0.2454 -0.4897
vn -0.4439 0.8256 -0.3482
vn 0.1184 0.8631 0.4910
vn 0.1006 0.8602 0.4999
vn 0.5774 0.3733 0.7261
vn 0.6580 -0.2443 0.7123
vn 0.7105 -0.5349 0.4573
vn 0.4439 -0.8256 0.3482
vn -0.2463 -0.9468 0.2073
vn -0.8297 -0.5378 0.1495
vn -0.8578 -0.5019 0.1105
vn -0.9749 0.1749 0.1376
vn -0.9807 0.0747 0.1807
vn -0.5718 0.7420 0.3501
vn -0.0834 0.2896 0.9535
vn 0.1722 0.1104 0.9789
vn 0.2312 -0.1960 0.9530
vn 0.0592 -0.4502 0.8910
vn -0.2431 -0.5032 0.8293
vn -0.4987 -0.3241 0.8039
vn -0.5577 -0.0177 0.8298
vn -0.3857 0.2365 0.8918
vn 0.3150 0.4604 -0.8299
vn -0.2105 0.9775 -0.0121
vn 0.6598 0.7352 0.1555
vn 0.9766 0.0328 -0.2124
vn 0.4854 -0.4585 -0.7444
vn -0.3630 -0.2437 -0.8994
vn -0.7116 0.4416 -0.5464
vn -0.4854 0.4585 0.7444
vn 0.3630 0.2437 0.8994
vn 0.7116 -0.4416 0.5464
vn 0.2105 -0.9775 0.0121
vn -0.6598 -0.7352 -0.1555
vn -0.9766 -0.0328 0.2124
vn -0.3150 -0.4604 0.8299
vn -0.2327 0.1692 -0.9577
vn -0.2231 0.8873 -0.4036
vn 0.2422 0.6903 -0.6818
vn 0.5329 0.2444 -0.8101
vn 0.2707 -0.2954 -0.9162
vn -0.1243 -0.5467 -0.8281
vn -0.6314 -0.4133 -0.6562
vn -0.8700 0.0165 -0.4928
vn -0.7030 0.6031 -0.3769
vn -0.1401 0.9117 0.3861
vn 0.5580 0.8283 0.0503
vn 0.9748 0.1793 -0.1331
vn 0.7552 -0.5890 -0.2876
vn 0.0256 -0.9708 -0.2385
vn -0.6585 -0.7526 0.0042
vn -0.9675 -0.1140 0.2256
vn -0.7398 0.5650 0.3654
vn 0.0778 0.5370 0.8400
vn 0.5615 0.4691 0.6817
vn 0.8116 0.0072 0.5842
vn 0.6778 -0.5037 0.5356
vn 0.1896 -0.8125 0.5512
vn -0.3216 -0.6512 0.6874
vn -0.5303 -0.2139 0.8204
vn -0.3218 0.4666 0.8239
vn 0.2255 -0.1422 0.9638
vn 0.1582 0.0312 -0.9869
vn 0.3669 -0.1788 -0.9129
vn 0.3041 -0.5203 -0.7980
vn -0.0515 -0.6977 -0.7146
vn -0.3668 -0.5338 -0.7619
vn -0.3887 -0.2167 -0.8955
vn -0.1536 0.0142 -0.9880
vn 0.4147 0.6053 -0.6794
vn 0.9214 0.1542 -0.3567
vn 0.7865 -0.5995 0.1485
vn -0.0693 -0.9251 0.3735
vn -0.7804 -0.6104 0.1355
vn -0.9308 0.0561 -0.3613
vn -0.3470 0.6007 -0.7202
vn 0.3420 0.7918 0.5060
vn 0.6000 0.3904 0.6983
vn 0.4122 -0.0334 0.9105
vn -0.0167 -0.2134 0.9768
vn -0.4183 -0.0783 0.9049
vn -0.5773 0.3456 0.7398
vn -0.2408 0.8073 0.5387
vn 0.0018 0.0215 -0.9998
vn 0.0435 0.6625 -0.7478
vn 0.4900 0.4719 -0.7330
vn 0.6737 0.0427 -0.7378
vn 0.4793 -0.4526 -0.7519
vn -0.0422 -0.6649 -0.7457
vn -0.5017 -0.4615 -0.7317
vn -0.6740 -0.0193 -0.7385
vn -0.4658 0.4634 -0.7538
vn 0.0421 0.9990 -0.0163
vn 0.7232 0.6905 -0.0132
vn 0.9997 0.0264 0.0003
vn 0.7111 -0.7030 0.0110
vn -0.0421 -0.9990 0.0163
vn -0.7232 -0.6905 0.0132
vn -0.9997 -0.0264 -0.0003
vn -0.7111 0.7030 -0.0110
vn 0.0422 0.6649 0.7457
vn 0.5017 0.4615 0.7317
vn 0.6740 0.0193 0.7385
vn 0.4658 -0.4634 0.7538
vn -0.0435 -0.6625 0.7478
vn -0.4900 -0.4719 0.7330
vn -0.6737 -0.0427 0.7378
vn -0.4793 0.4526 0.7519
vn -0.0018 -0.0215 0.9998
# 128 vertex normals

vt 0.0000 1.0000 0.0000
vt 0.0000 0.7500 0.0000
vt 0.1250 0.7500 0.0000
vt 0.1250 1.0000 0.0000
vt 0.2500 0.7500 0.0000
vt 0.2500 1.0000 0.0000
vt 0.3750 0.7500 0.0000
vt 0.3750 1.0000 0.0000
vt 0.5000 0.7500 0.0000
vt 0.5000 1.0000 0.0000
vt 0.6250 0.7500 0.0000
vt 0.6250 1.0000 0.0000
vt 0.7500 0.7500 0.0000
vt 0.7500 1.0000 0.0000
vt 0.8750 0.7500 0.0000
vt 0.8750 1.0000 0.0000
vt 1.0000 0.7500 0.0000
vt 0.0000 0.5000 0.0000
vt 0.1250 0.5000 0.0000
vt 0.2500 0.5000 0.0000
vt 0.3750 0.5000 0.0000
vt 0.5000 0.5000 0.0000
vt 0.6250 0.5000 0.0000
vt 0.7500 0.5000 0.0000
vt 0.8750 0.5000 0.0000
vt 1.0000 0.5000 0.0000
vt 0.0000 0.2500 0.0000
vt 0.1250 0.2500 0.0000
vt 0.2500 0.2500 0.0000
vt 0.3750 0.2500 0.0000
vt 0.5000 0.2500 0.0000
vt 0.6250 0.2500 0.0000
vt 0.7500 0.2500 0.0000
vt 0.8750 0.2500 0.0000
vt 1.0000 0.2500 0.0000
vt 0.0000 0.0000 0.0000
vt 0.1250 0.0000 0.0000
vt 0.2500 0.0000 0.0000
vt 0.3750 0.0000 0.0000
vt 0.5000 0.0000 0.0000
vt 0.6250 0.0000 0.0000
vt 0.7500 0.0000 0.0000
vt 0.8750 0.0000 0.0000
vt 0.0000 0.6667 0.0000
vt 0.1667 0.6667 0.0000
vt 0.1667 1.0000 0.0000
vt 0.3333 0.6667 0.0000
vt 0.3333 1.0000 0.0000
vt 0.5000 0.6667 0.0000
vt 0.6667 0.6667 0.0000
vt 0.6667 1.0000 0.0000
vt 0.8333 0.6667 0.0000
vt 0.8333 1.0000 0.0000
vt 1.0000 0.6667 0.0000
vt 0.0000 0.3333 0.0000
vt 0.1667 0.3333 0.0000
vt 0.3333 0.3333 0.0000
vt 0.5000 0.3333 0.0000
vt 0.6667 0.3333 0.0000
vt 0.8333 0.3333 0.0000
vt 1.0000 0.3333 0.0000
vt 0.1667 0.0000 0.0000
vt 0.3333 0.0000 0.0000
vt 0.6667 0.0000 0.0000
vt 0.8333 0.0000 0.0000
vt 0.0000 0.7143 0.0000
vt 0.1429 0.7143 0.0000
vt 0.1429 1.0000 0.0000
vt 0.2857 0.7143 0.0000
vt 0.2857 1.0000 0.0000
vt 0.4286 0.7143 0.0000
vt 0.4286 1.0000 0.0000
vt 0.5714 0.7143 0.0000
vt 0.5714 1.0000 0.0000
vt 0.7143 0.7143 0.0000
vt 0.7143 1.0000 0.0000
vt 0.8571 0.7143 0.0000
vt 0.8571 1.0000 0.0000
vt 1.0000 0.7143 0.0000
vt 0.0000 0.4286 0.0000
vt 0.1429 0.4286 0.0000
vt 0.2857 0.4286 0.0000
vt 0.4286 0.4286 0.0000
vt 0.5714 0.4286 0.0000
vt 0.7143 0.4286 0.0000
vt 0.8571 0.4286 0.0000
vt 1.0000 0.4286 0.0000
vt 0.0000 0.1429 0.0000
vt 0.1429 0.1429 0.0000
vt 0.2857 0.1429 0.0000
vt 0.4286 0.1429 0.0000
vt 0.5714 0.1429 0.0000
vt 0.7143 0.1429 0.0000
vt 0.8571 0.1429 0.0000
# 94 texture coords

o Sphere012
g Sphere012
usemtl Material__25
s off
f 1/1/1 2/2/1 3/3/1 
f 1/4/2 3/3/2 4/5/2 
f 1/6/3 4/5/3 5/7/3 
f 1/8/4 5/7/4 6/9/4 
f 1/10/5 6/9/5 7/11/5 
f 1/12/6 7/11/6 8/13/6 
f 1/14/7 8/13/7 9/15/7 
f 1/16/8 9/15/8 2/17/8 
f 2/2/9 10/18/9 11/19/9 
f 2/2/10 11/19/10 3/3/10 
f 3/3/11 11/19/11 12/20/11 
f 3/3/12 12/20/12 4/5/12 
f 4/5/13 12/20/13 13/21/13 
f 4/5/14 13/21/14 5/7/14 
f 5/7/15 13/21/15 14/22/15 
f 5/7/15 14/22/15 6/9/15 
f 6/9/16 14/22/16 15/23/16 
f 6/9/16 15/23/16 7/11/16 
f 7/11/17 15/23/17 16/24/17 
f 7/11/18 16/24/18 8/13/18 
f 8/13/19 16/24/19 17/25/19 
f 8/13/20 17/25/20 9/15/20 
f 9/15/21 17/25/21 10/26/21 
f 9/15/21 10/26/21 2/17/21 
f 10/18/22 18/27/22 19/28/22 
f 10/18/23 19/28/23 11/19/23 
f 11/19/24 19/28/24 20/29/24 
f 11/19/24 20/29/24 12/20/24 
f 12/20/25 20/29/25 21/30/25 
f 12/20/26 21/30/26 13/21/26 
f 13/21/27 21/30/27 22/31/27 
f 13/21/27 22/31/27 14/22/27 
f 14/22/28 22/31/28 23/32/28 
f 14/22/28 23/32/28 15/23/28 
f 15/23/29 23/32/29 24/33/29 
f 15/23/30 24/33/30 16/24/30 
f 16/24/31 24/33/31 25/34/31 
f 16/24/32 25/34/32 17/25/32 
f 17/25/33 25/34/33 18/35/33 
f 17/25/33 18/35/33 10/26/33 
f 26/36/34 19/28/34 18/27/34 
f 26/37/35 20/29/35 19/28/35 
f 26/38/36 21/30/36 20/29/36 
f 26/39/37 22/31/37 21/30/37 
f 26/40/38 23/32/38 22/31/38 
f 26/41/39 24/33/39 23/32/39 
f 26/42/40 25/34/40 24/33/40 
f 26/43/41 18/35/41 25/34/41 
s 1
f 27/1/42 28/44/43 29/45/44 
f 27/46/42 29/45/44 30/47/45 
f 27/48/42 30/47/45 31/49/46 
f 27/10/42 31/49/46 32/50/47 
f 27/51/42 32/50/47 33/52/48 
f 27/53/42 33/52/48 28/54/43 
f 28/44/43 34/55/49 35/56/50 
f 28/44/43 35/56/50 29/45/44 
f 29/45/44 35/56/50 36/57/51 
f 29/45/44 36/57/51 30/47/45 
f 30/47/45 36/57/51 37/58/52 
f 30/47/45 37/58/52 31/49/46 
f 31/49/46 37/58/52 38/59/53 
f 31/49/46 38/59/53 32/50/47 
f 32/50/47 38/59/53 39/60/54 
f 32/50/47 39/60/54 33/52/48 
f 33/52/48 39/60/54 34/61/49 
f 33/52/48 34/61/49 28/54/43 
f 40/36/55 35/56/50 34/55/49 
f 40/62/55 36/57/51 35/56/50 
f 40/63/55 37/58/52 36/57/51 
f 40/40/55 38/59/53 37/58/52 
f 40/64/55 39/60/54 38/59/53 
f 40/65/55 34/61/49 39/60/54 
f 41/1/56 42/2/57 43/3/58 
f 41/4/56 43/3/58 44/5/59 
f 41/6/56 44/5/59 45/7/60 
f 41/8/56 45/7/60 46/9/61 
f 41/10/56 46/9/61 47/11/62 
f 41/12/56 47/11/62 48/13/63 
f 41/14/56 48/13/63 49/15/64 
f 41/16/56 49/15/64 42/17/57 
f 42/2/57 50/18/65 51/19/66 
f 42/2/57 51/19/66 43/3/58 
f 43/3/58 51/19/66 52/20/67 
f 43/3/58 52/20/67 44/5/59 
f 44/5/59 52/20/67 53/21/68 
f 44/5/59 53/21/68 45/7/60 
f 45/7/60 53/21/68 54/22/69 
f 45/7/60 54/22/69 46/9/61 
f 46/9/61 54/22/69 55/23/70 
f 46/9/61 55/23/70 47/11/62 
f 47/11/62 55/23/70 56/24/71 
f 47/11/62 56/24/71 48/13/63 
f 48/13/63 56/24/71 57/25/72 
f 48/13/63 57/25/72 49/15/64 
f 49/15/64 57/25/72 50/26/65 
f 49/15/64 50/26/65 42/17/57 
f 50/18/65 58/27/73 59/28/74 
f 50/18/65 59/28/74 51/19/66 
f 51/19/66 59/28/74 60/29/75 
f 51/19/66 60/29/75 52/20/67 
f 52/20/67 60/29/75 61/30/76 
f 52/20/67 61/30/76 53/21/68 
f 53/21/68 61/30/76 62/31/77 
f 53/21/68 62/31/77 54/22/69 
f 54/22/69 62/31/77 63/32/78 
f 54/22/69 63/32/78 55/23/70 
f 55/23/70 63/32/78 64/33/79 
f 55/23/70 64/33/79 56/24/71 
f 56/24/71 64/33/79 65/34/80 
f 56/24/71 65/34/80 57/25/72 
f 57/25/72 65/34/80 58/35/73 
f 57/25/72 58/35/73 50/26/65 
f 66/36/81 59/28/74 58/27/73 
f 66/37/81 60/29/75 59/28/74 
f 66/38/81 61/30/76 60/29/75 
f 66/39/81 62/31/77 61/30/76 
f 66/40/81 63/32/78 62/31/77 
f 66/41/81 64/33/79 63/32/78 
f 66/42/81 65/34/80 64/33/79 
f 66/43/81 58/35/73 65/34/80 
s off
f 67/1/82 68/66/82 69/67/82 
f 67/68/83 69/67/83 70/69/83 
f 67/70/84 70/69/84 71/71/84 
f 67/72/85 71/71/85 72/73/85 
f 67/74/86 72/73/86 73/75/86 
f 67/76/87 73/75/87 74/77/87 
f 67/78/88 74/77/88 68/79/88 
f 68/66/89 75/80/89 76/81/89 
f 68/66/89 76/81/89 69/67/89 
f 69/67/90 76/81/90 77/82/90 
f 69/67/90 77/82/90 70/69/90 
f 70/69/91 77/82/91 78/83/91 
f 70/69/91 78/83/91 71/71/91 
f 71/71/92 78/83/92 79/84/92 
f 71/71/92 79/84/92 72/73/92 
f 72/73/93 79/84/93 80/85/93 
f 72/73/93 80/85/93 73/75/93 
f 73/75/94 80/85/94 81/86/94 
f 73/75/94 81/86/94 74/77/94 
f 74/77/95 81/86/95 75/87/95 
f 74/77/95 75/87/95 68/79/95 
f 82/88/96 76/81/96 75/80/96 
f 82/89/97 77/82/97 76/81/97 
f 82/90/98 78/83/98 77/82/98 
f 82/91/99 79/84/99 78/83/99 
f 82/92/100 80/85/100 79/84/100 
f 82/93/101 81/86/101 80/85/101 
f 82/94/102 75/87/102 81/86/102 
s 1
f 83/1/103 84/2/104 85/3/105 
f 83/4/103 85/3/105 86/5/106 
f 83/6/103 86/5/106 87/7/107 
f 83/8/103 87/7/107 88/9/108 
f 83/10/103 88/9/108 89/11/109 
f 83/12/103 89/11/109 90/13/110 
f 83/14/103 90/13/110 91/15/111 
f 83/16/103 91/15/111 84/17/104 
f 84/2/104 92/18/112 93/19/113 
f 84/2/104 93/19/113 85/3/105 
f 85/3/105 93/19/113 94/20/114 
f 85/3/105 94/20/114 86/5/106 
f 86/5/106 94/20/114 95/21/115 
f 86/5/106 95/21/115 87/7/107 
f 87/7/107 95/21/115 96/22/116 
f 87/7/107 96/22/116 88/9/108 
f 88/9/108 96/22/116 97/23/117 
f 88/9/108 97/23/117 89/11/109 
f 89/11/109 97/23/117 98/24/118 
f 89/11/109 98/24/118 90/13/110 
f 90/13/110 98/24/118 99/25/119 
f 90/13/110 99/25/119 91/15/111 
f 91/15/111 99/25/119 92/26/112 
f 91/15/111 92/26/112 84/17/104 
f 92/18/112 100/27/120 101/28/121 
f 92/18/112 101/28/121 93/19/113 
f 93/19/113 101/28/121 102/29/122 
f 93/19/113 102/29/122 94/20/114 
f 94/20/114 102/29/122 103/30/123 
f 94/20/114 103/30/123 95/21/115 
f 95/21/115 103/30/123 104/31/124 
f 95/21/115 104/31/124 96/22/116 
f 96/22/116 104/31/124 105/32/125 
f 96/22/116 105/32/125 97/23/117 
f 97/23/117 105/32/125 106/33/126 
f 97/23/117 106/33/126 98/24/118 
f 98/24/118 106/33/126 107/34/127 
f 98/24/118 107/34/127 99/25/119 
f 99/25/119 107/34/127 100/35/120 
f 99/25/119 100/35/120 92/26/112 
f 108/36/128 101/28/121 100/27/120 
f 108/37/128 102/29/122 101/28/121 
f 108/38/128 103/30/123 102/29/122 
f 108/39/128 104/31/124 103/30/123 
f 108/40/128 105/32/125 104/31/124 
f 108/41/128 106/33/126 105/32/125 
f 108/42/128 107/34/127 106/33/126 
f 108/43/128 100/35/120 107/34/127 
# 196 faces

