# 3ds Max Wavefront OBJ Exporter v0.97b - (c)2007 guruware
# File Created: 17.06.2018 11:41:29

mtllib cloud.mtl

#
# object GeoSphere001
#

v  -43.3308 64.6240 37.1563
v  -40.1647 63.6793 36.9345
v  -44.7433 63.6960 33.4140
v  -38.1524 61.5155 36.3369
v  -40.7683 62.1972 31.8866
v  -45.3426 61.1962 31.0755
v  -38.1595 58.4757 36.4841
v  -39.7773 57.1816 33.3794
v  -42.3395 56.9518 31.1907
v  -45.3832 58.1681 31.1188
v  -44.6189 63.8442 40.4229
v  -47.5791 62.1480 36.8257
v  -45.5901 61.4477 42.3452
v  -47.1968 57.1598 34.8507
v  -46.9108 57.0099 39.1115
v  -45.7294 58.4247 42.2306
v  -40.7988 62.2242 41.9384
v  -42.6813 57.2175 42.4604
v  -39.5086 57.0993 40.3883
v  -41.7934 55.0071 36.6509
v  -40.7717 63.8822 43.2639
v  -38.3357 63.3508 42.6489
v  -41.8882 63.0133 40.3228
v  -36.9649 61.3686 42.2421
v  -38.9351 62.0340 38.6546
v  -42.6224 60.9703 38.4236
v  -37.2401 58.8126 42.5079
v  -37.8807 57.8041 39.7782
v  -40.0865 57.4928 38.4970
v  -42.5259 58.4138 38.4489
v  -42.3096 63.5175 46.1463
v  -44.2655 62.1611 43.0392
v  -43.7866 61.5468 47.7873
v  -43.8516 57.7226 41.1154
v  -44.7433 57.7536 44.6556
v  -44.0349 58.9902 47.6814
v  -39.7240 62.3143 47.0063
v  -41.4302 58.1524 47.8606
v  -39.1128 57.9013 45.6017
v  -40.1144 55.8423 43.0708
v  -44.9527 65.9346 43.0762
v  -43.2448 65.2927 43.3947
v  -46.0896 65.2020 40.7187
v  -42.3328 63.6037 43.2785
v  -43.9359 64.3301 40.0636
v  -46.7551 63.4629 39.4426
v  -42.4040 61.6563 43.1374
v  -43.1028 60.9655 40.8479
v  -44.7960 61.0169 39.3778
v  -46.6368 61.5169 39.4277
v  -45.9909 64.8550 45.1655
v  -47.9224 63.9413 43.0886
v  -47.1108 62.9476 46.5926
v  -47.6155 60.6651 41.8564
v  -48.1577 60.5146 44.5597
v  -47.5104 61.0055 46.4776
v  -44.0879 64.4045 46.4409
v  -45.8874 60.8021 46.5279
v  -43.9097 61.1588 45.2946
v  -44.8972 59.7879 42.9353
v  -46.1538 61.1025 45.6379
v  -44.3618 60.9132 45.7465
v  -46.6944 60.6752 43.4610
v  -43.4247 59.4931 45.8069
v  -44.1882 60.0288 42.5189
v  -47.1013 59.1059 42.3101
v  -43.3319 57.5860 45.7709
v  -43.7024 56.7432 43.3818
v  -45.1267 56.8046 41.8877
v  -47.1043 57.2074 42.3535
v  -47.6290 60.0874 47.8686
v  -49.2513 59.2745 46.2983
v  -48.4374 58.5612 49.3971
v  -48.5842 56.1359 44.8732
v  -48.8260 55.9413 47.5526
v  -47.8403 56.6505 49.3413
v  -45.4884 60.0901 48.8401
v  -45.6025 56.4932 48.9748
v  -44.0713 56.9856 47.7894
v  -45.2624 55.2457 45.4204
# 80 vertices

vn -0.0200 0.9998 0.0086
vn 0.5350 0.8448 0.0084
vn -0.3019 0.8141 -0.4961
vn 0.9492 0.3068 -0.0692
vn 0.4529 0.4486 -0.7705
vn -0.4433 0.2616 -0.8573
vn 0.9605 -0.2694 -0.0699
vn 0.7037 -0.4718 -0.5313
vn 0.1339 -0.5432 -0.8288
vn -0.4613 -0.3194 -0.8278
vn -0.2801 0.8204 0.4985
vn -0.9118 0.4106 -0.0104
vn -0.4970 0.2594 0.8281
vn -0.7960 -0.5326 -0.2876
vn -0.7418 -0.5814 0.3342
vn -0.5399 -0.2538 0.8025
vn 0.4637 0.4296 0.7749
vn 0.0622 -0.5167 0.8539
vn 0.6895 -0.4887 0.5346
vn 0.1663 -0.9860 -0.0127
vn -0.0026 0.9990 -0.0448
vn 0.5805 0.8143 -0.0011
vn -0.3000 0.8032 -0.5146
vn 0.9746 0.2219 0.0292
vn 0.3936 0.4549 -0.7989
vn -0.4891 0.2442 -0.8373
vn 0.9159 -0.3365 0.2190
vn 0.7364 -0.4771 -0.4797
vn 0.0914 -0.5602 -0.8233
vn -0.4435 -0.3402 -0.8292
vn -0.2442 0.8678 0.4328
vn -0.8576 0.4866 -0.1664
vn -0.5664 0.3367 0.7522
vn -0.7418 -0.5240 -0.4185
vn -0.8346 -0.5324 0.1413
vn -0.6089 -0.2751 0.7440
vn 0.4826 0.4061 0.7760
vn 0.1225 -0.4719 0.8731
vn 0.6716 -0.4299 0.6034
vn 0.1978 -0.9765 0.0859
vn -0.0121 0.9991 0.0415
vn 0.6298 0.7743 0.0615
vn -0.3153 0.8066 -0.5000
vn 0.9826 0.1708 0.0730
vn 0.4789 0.4504 -0.7535
vn -0.5017 0.2416 -0.8306
vn 0.9075 -0.3845 0.1693
vn 0.7250 -0.5150 -0.4573
vn 0.1674 -0.4981 -0.8508
vn -0.4666 -0.3417 -0.8158
vn -0.3681 0.7842 0.4995
vn -0.8911 0.4537 -0.0035
vn -0.5239 0.2650 0.8095
vn -0.7056 -0.5836 -0.4019
vn -0.7960 -0.5812 0.1692
vn -0.5422 -0.3797 0.7496
vn 0.3701 0.4416 0.8173
vn 0.1263 -0.5794 0.8052
vn 0.6139 -0.5030 0.6083
vn 0.2039 -0.9790 0.0036
vn -0.1566 0.9805 0.1186
vn 0.5036 0.8539 0.1313
vn -0.3340 0.7960 -0.5047
vn 0.9429 0.2783 0.1827
vn 0.5287 0.4888 -0.6940
vn -0.4681 0.2404 -0.8503
vn 0.9724 -0.1985 0.1229
vn 0.7993 -0.4435 -0.4055
vn 0.1662 -0.4399 -0.8825
vn -0.4738 -0.3031 -0.8268
vn -0.4052 0.8146 0.4150
vn -0.9120 0.4049 -0.0656
vn -0.5363 0.2106 0.8173
vn -0.6943 -0.5787 -0.4278
vn -0.6822 -0.6777 0.2746
vn -0.2326 -0.4478 0.8633
vn 0.2722 0.5730 0.7730
vn 0.2964 -0.5053 0.8104
vn 0.7547 -0.3315 0.5661
vn 0.2637 -0.9637 -0.0428
# 80 vertex normals

vt 0.6667 1.0000 13.8187
vt 0.5000 0.7973 13.8187
vt 0.8333 0.7973 13.8187
vt 0.5000 0.5946 13.8187
vt 0.6667 0.6749 13.8187
vt 0.8333 0.5946 13.8187
vt 0.5000 0.3918 13.8187
vt 0.6056 0.3153 13.8187
vt 0.7277 0.3153 13.8187
vt 0.8333 0.3918 13.8187
vt 0.0000 1.0000 13.8187
vt -0.1667 0.7973 13.8187
vt 0.1667 0.7973 13.8187
vt 1.0000 0.6749 13.8187
vt 0.0000 0.6749 13.8187
vt 0.1667 0.5946 13.8187
vt 0.9389 0.3153 13.8187
vt -0.0611 0.3153 13.8187
vt 0.0611 0.3153 13.8187
vt 0.1667 0.3918 13.8187
vt 0.3333 1.0000 13.8187
vt 0.3333 0.6749 13.8187
vt 0.2723 0.3153 13.8187
vt 0.3944 0.3153 13.8187
vt 0.5000 0.0667 13.8187
# 25 texture coords

o GeoSphere001
g GeoSphere001
usemtl Material__25
s 1
f 1/1/1 2/2/2 3/3/3 
f 2/2/2 4/4/4 5/5/5 
f 2/2/2 5/5/5 3/3/3 
f 3/3/3 5/5/5 6/6/6 
f 4/4/4 7/7/7 8/8/8 
f 4/4/4 8/8/8 5/5/5 
f 5/5/5 8/8/8 9/9/9 
f 5/5/5 9/9/9 6/6/6 
f 6/6/6 9/9/9 10/10/10 
f 1/11/1 3/12/3 11/13/11 
f 3/3/3 6/6/6 12/14/12 
f 3/12/3 12/15/12 11/13/11 
f 11/13/11 12/15/12 13/16/13 
f 6/6/6 10/10/10 14/17/14 
f 6/6/6 14/17/14 12/14/12 
f 12/15/12 14/18/14 15/19/15 
f 12/15/12 15/19/15 13/16/13 
f 13/16/13 15/19/15 16/20/16 
f 1/21/1 11/13/11 2/2/2 
f 11/13/11 13/16/13 17/22/17 
f 11/13/11 17/22/17 2/2/2 
f 2/2/2 17/22/17 4/4/4 
f 13/16/13 16/20/16 18/23/18 
f 13/16/13 18/23/18 17/22/17 
f 17/22/17 18/23/18 19/24/19 
f 17/22/17 19/24/19 4/4/4 
f 4/4/4 19/24/19 7/7/7 
f 7/7/7 19/24/19 8/8/8 
f 19/24/19 18/23/18 20/25/20 
f 19/24/19 20/25/20 8/8/8 
f 8/8/8 20/25/20 9/9/9 
f 18/23/18 16/20/16 15/19/15 
f 18/23/18 15/19/15 20/25/20 
f 20/25/20 15/19/15 14/18/14 
f 20/25/20 14/17/14 9/9/9 
f 9/9/9 14/17/14 10/10/10 
f 21/1/21 22/2/22 23/3/23 
f 22/2/22 24/4/24 25/5/25 
f 22/2/22 25/5/25 23/3/23 
f 23/3/23 25/5/25 26/6/26 
f 24/4/24 27/7/27 28/8/28 
f 24/4/24 28/8/28 25/5/25 
f 25/5/25 28/8/28 29/9/29 
f 25/5/25 29/9/29 26/6/26 
f 26/6/26 29/9/29 30/10/30 
f 21/11/21 23/12/23 31/13/31 
f 23/3/23 26/6/26 32/14/32 
f 23/12/23 32/15/32 31/13/31 
f 31/13/31 32/15/32 33/16/33 
f 26/6/26 30/10/30 34/17/34 
f 26/6/26 34/17/34 32/14/32 
f 32/15/32 34/18/34 35/19/35 
f 32/15/32 35/19/35 33/16/33 
f 33/16/33 35/19/35 36/20/36 
f 21/21/21 31/13/31 22/2/22 
f 31/13/31 33/16/33 37/22/37 
f 31/13/31 37/22/37 22/2/22 
f 22/2/22 37/22/37 24/4/24 
f 33/16/33 36/20/36 38/23/38 
f 33/16/33 38/23/38 37/22/37 
f 37/22/37 38/23/38 39/24/39 
f 37/22/37 39/24/39 24/4/24 
f 24/4/24 39/24/39 27/7/27 
f 27/7/27 39/24/39 28/8/28 
f 39/24/39 38/23/38 40/25/40 
f 39/24/39 40/25/40 28/8/28 
f 28/8/28 40/25/40 29/9/29 
f 38/23/38 36/20/36 35/19/35 
f 38/23/38 35/19/35 40/25/40 
f 40/25/40 35/19/35 34/18/34 
f 40/25/40 34/17/34 29/9/29 
f 29/9/29 34/17/34 30/10/30 
f 41/1/41 42/2/42 43/3/43 
f 42/2/42 44/4/44 45/5/45 
f 42/2/42 45/5/45 43/3/43 
f 43/3/43 45/5/45 46/6/46 
f 44/4/44 47/7/47 48/8/48 
f 44/4/44 48/8/48 45/5/45 
f 45/5/45 48/8/48 49/9/49 
f 45/5/45 49/9/49 46/6/46 
f 46/6/46 49/9/49 50/10/50 
f 41/11/41 43/12/43 51/13/51 
f 43/3/43 46/6/46 52/14/52 
f 43/12/43 52/15/52 51/13/51 
f 51/13/51 52/15/52 53/16/53 
f 46/6/46 50/10/50 54/17/54 
f 46/6/46 54/17/54 52/14/52 
f 52/15/52 54/18/54 55/19/55 
f 52/15/52 55/19/55 53/16/53 
f 53/16/53 55/19/55 56/20/56 
f 41/21/41 51/13/51 42/2/42 
f 51/13/51 53/16/53 57/22/57 
f 51/13/51 57/22/57 42/2/42 
f 42/2/42 57/22/57 44/4/44 
f 53/16/53 56/20/56 58/23/58 
f 53/16/53 58/23/58 57/22/57 
f 57/22/57 58/23/58 59/24/59 
f 57/22/57 59/24/59 44/4/44 
f 44/4/44 59/24/59 47/7/47 
f 47/7/47 59/24/59 48/8/48 
f 59/24/59 58/23/58 60/25/60 
f 59/24/59 60/25/60 48/8/48 
f 48/8/48 60/25/60 49/9/49 
f 58/23/58 56/20/56 55/19/55 
f 58/23/58 55/19/55 60/25/60 
f 60/25/60 55/19/55 54/18/54 
f 60/25/60 54/17/54 49/9/49 
f 49/9/49 54/17/54 50/10/50 
f 61/1/61 62/2/62 63/3/63 
f 62/2/62 64/4/64 65/5/65 
f 62/2/62 65/5/65 63/3/63 
f 63/3/63 65/5/65 66/6/66 
f 64/4/64 67/7/67 68/8/68 
f 64/4/64 68/8/68 65/5/65 
f 65/5/65 68/8/68 69/9/69 
f 65/5/65 69/9/69 66/6/66 
f 66/6/66 69/9/69 70/10/70 
f 61/11/61 63/12/63 71/13/71 
f 63/3/63 66/6/66 72/14/72 
f 63/12/63 72/15/72 71/13/71 
f 71/13/71 72/15/72 73/16/73 
f 66/6/66 70/10/70 74/17/74 
f 66/6/66 74/17/74 72/14/72 
f 72/15/72 74/18/74 75/19/75 
f 72/15/72 75/19/75 73/16/73 
f 73/16/73 75/19/75 76/20/76 
f 61/21/61 71/13/71 62/2/62 
f 71/13/71 73/16/73 77/22/77 
f 71/13/71 77/22/77 62/2/62 
f 62/2/62 77/22/77 64/4/64 
f 73/16/73 76/20/76 78/23/78 
f 73/16/73 78/23/78 77/22/77 
f 77/22/77 78/23/78 79/24/79 
f 77/22/77 79/24/79 64/4/64 
f 64/4/64 79/24/79 67/7/67 
f 67/7/67 79/24/79 68/8/68 
f 79/24/79 78/23/78 80/25/80 
f 79/24/79 80/25/80 68/8/68 
f 68/8/68 80/25/80 69/9/69 
f 78/23/78 76/20/76 75/19/75 
f 78/23/78 75/19/75 80/25/80 
f 80/25/80 75/19/75 74/18/74 
f 80/25/80 74/17/74 69/9/69 
f 69/9/69 74/17/74 70/10/70 
# 144 faces

