# 3ds Max Wavefront OBJ Exporter v0.97b - (c)2007 guruware
# File Created: 17.06.2018 11:41:39

mtllib cloud2.mtl

#
# object Sphere012
#

v  10.0894 62.6456 52.7132
v  11.9098 65.0923 53.5142
v  12.3725 64.7734 49.1080
v  12.4335 63.0959 49.3484
v  12.0571 61.0425 50.0601
v  11.4638 59.8160 52.4973
v  11.0011 60.1349 55.2324
v  10.9401 61.8124 56.6632
v  11.3165 63.8658 55.9515
v  15.8587 65.7229 54.4311
v  16.5131 65.2719 48.8920
v  16.5993 62.8996 46.8687
v  16.0670 59.9956 49.5463
v  15.2279 58.2611 52.9930
v  14.5735 58.7121 56.8610
v  12.3535 61.0844 58.8844
v  15.0196 63.9884 57.8779
v  19.6228 64.1680 54.9268
v  20.0855 63.8491 52.1917
v  20.1465 62.1716 50.7610
v  19.7701 60.1181 51.4727
v  19.1768 58.8917 53.9099
v  18.7141 59.2106 56.6450
v  18.6531 60.8881 58.0757
v  19.0295 62.9415 57.3640
v  20.9972 61.3384 54.7109
v  13.6898 63.1906 58.2386
v  15.4123 64.2632 59.3491
v  15.9392 63.8140 57.1587
v  15.1434 62.1421 56.3941
v  13.8207 60.9195 57.8198
v  13.2938 61.3687 60.0101
v  14.0897 63.0405 60.7748
v  17.2659 63.0645 60.0408
v  17.7928 62.6153 57.8504
v  16.9969 60.9435 57.0857
v  15.6743 59.7208 58.5114
v  15.1474 60.1700 60.7018
v  15.9432 61.8419 61.4665
v  17.3969 60.7933 59.6219
v  9.2016 64.0040 50.4408
v  10.6128 65.6301 50.3024
v  9.9799 65.3893 48.7187
v  9.5410 64.1445 47.4625
v  9.4086 62.7203 48.4916
v  9.6600 61.9508 50.0606
v  10.1481 62.2869 51.7237
v  10.5869 63.5317 52.5067
v  10.7194 64.9560 51.9508
v  12.8217 65.5880 49.8637
v  11.9915 65.6662 47.5308
v  11.4064 63.8709 45.9858
v  11.2190 61.8567 46.7719
v  11.5746 60.7686 49.4641
v  12.2649 61.2439 51.8160
v  12.8854 63.0043 52.9233
v  13.0728 64.5574 52.1372
v  14.6318 64.4632 49.3217
v  14.1437 64.5882 47.6586
v  13.7049 63.3434 46.8756
v  13.5724 61.9192 47.4315
v  13.8239 61.1498 49.0005
v  14.3119 61.4859 50.6636
v  14.7508 62.7306 51.4465
v  14.8833 64.1549 50.8907
v  15.0902 62.8711 48.9415
v  14.8474 60.3665 49.0922
v  14.8283 63.5779 49.0922
v  15.3068 62.5992 46.2335
v  16.3819 60.4001 45.5274
v  17.2441 58.6366 47.5057
v  17.2441 58.6366 50.6786
v  16.3819 60.4001 52.6569
v  15.3068 62.5992 51.9509
v  17.3271 65.5950 49.0922
v  17.9238 64.3746 45.5274
v  19.2645 61.6324 44.6470
v  20.3396 59.4334 47.1139
v  20.3396 59.4334 51.0705
v  19.2645 61.6324 53.5374
v  17.9238 64.3746 52.6569
v  21.4967 63.6175 49.0922
v  12.0236 61.9920 46.3917
v  12.7011 63.6277 46.3917
v  12.7011 63.1486 44.8934
v  12.7011 61.9920 44.2727
v  12.7011 60.8354 44.8934
v  12.7011 60.3563 46.3917
v  12.7011 60.8354 47.8900
v  12.7011 61.9920 48.5106
v  12.7011 63.1486 47.8900
v  14.3368 64.3052 46.3917
v  14.3368 63.6277 44.2727
v  14.3368 61.9920 43.3951
v  14.3368 60.3563 44.2727
v  14.3368 59.6788 46.3917
v  14.3368 60.3563 48.5106
v  14.3368 61.9920 49.3883
v  14.3368 63.6277 48.5106
v  15.9725 63.6277 46.3917
v  15.9725 63.1486 44.8934
v  15.9725 61.9920 44.2727
v  15.9725 60.8354 44.8934
v  15.9725 60.3563 46.3917
v  15.9725 60.8354 47.8900
v  15.9725 61.9920 48.5106
v  15.9725 63.1486 47.8900
v  16.6500 61.9920 46.3917
# 108 vertices

vn -0.8532 0.4942 -0.1666
vn -0.8268 -0.0269 -0.5618
vn -0.8298 0.0177 -0.5577
vn -0.8918 -0.2365 -0.3857
vn -0.9535 -0.2896 -0.0834
vn -0.9789 -0.1104 0.1722
vn -0.9530 0.1960 0.2312
vn -0.8910 0.4502 0.0592
vn -0.2222 0.9549 -0.1968
vn -0.2073 0.9611 -0.1825
vn -0.1495 0.5378 -0.8297
vn -0.5354 -0.0417 -0.8436
vn -0.5089 -0.4087 -0.7576
vn -0.2086 -0.1617 -0.9645
vn -0.3501 -0.7420 -0.5718
vn -0.4910 -0.8631 0.1184
vn -0.5607 -0.6676 0.4898
vn -0.8623 -0.2746 0.4254
vn -0.6278 0.5283 0.5716
vn -0.4897 0.2454 0.8367
vn -0.3482 0.8256 0.4439
vn 0.4910 0.8631 -0.1184
vn 0.4999 0.8602 -0.1006
vn 0.7261 0.3733 -0.5774
vn 0.7123 -0.2443 -0.6580
vn 0.4573 -0.5349 -0.7105
vn 0.3482 -0.8256 -0.4439
vn 0.2073 -0.9468 0.2463
vn 0.1495 -0.5378 0.8297
vn 0.1105 -0.5019 0.8578
vn 0.1376 0.1749 0.9749
vn 0.1807 0.0747 0.9807
vn 0.3501 0.7420 0.5718
vn 0.9535 0.2896 0.0834
vn 0.9789 0.1104 -0.1722
vn 0.9530 -0.1960 -0.2312
vn 0.8910 -0.4502 -0.0592
vn 0.8293 -0.5032 0.2431
vn 0.8039 -0.3241 0.4987
vn 0.8298 -0.0177 0.5577
vn 0.8918 0.2365 0.3857
vn -0.8299 0.4604 -0.3150
vn -0.0121 0.9775 0.2105
vn 0.1555 0.7352 -0.6598
vn -0.2124 0.0328 -0.9766
vn -0.7444 -0.4585 -0.4854
vn -0.8994 -0.2437 0.3630
vn -0.5464 0.4416 0.7116
vn 0.7444 0.4585 0.4854
vn 0.8994 0.2437 -0.3630
vn 0.5464 -0.4416 -0.7116
vn 0.0121 -0.9775 -0.2105
vn -0.1555 -0.7352 0.6598
vn 0.2124 -0.0328 0.9766
vn 0.8299 -0.4604 0.3150
vn -0.9577 0.1692 0.2327
vn -0.4036 0.8873 0.2231
vn -0.6818 0.6903 -0.2422
vn -0.8101 0.2444 -0.5329
vn -0.9162 -0.2954 -0.2707
vn -0.8281 -0.5467 0.1243
vn -0.6562 -0.4133 0.6314
vn -0.4928 0.0165 0.8700
vn -0.3769 0.6031 0.7030
vn 0.3861 0.9117 0.1401
vn 0.0503 0.8283 -0.5580
vn -0.1331 0.1793 -0.9748
vn -0.2876 -0.5890 -0.7552
vn -0.2385 -0.9708 -0.0256
vn 0.0042 -0.7526 0.6585
vn 0.2256 -0.1140 0.9675
vn 0.3654 0.5650 0.7398
vn 0.8400 0.5370 -0.0778
vn 0.6817 0.4691 -0.5615
vn 0.5842 0.0072 -0.8116
vn 0.5356 -0.5037 -0.6778
vn 0.5512 -0.8125 -0.1896
vn 0.6874 -0.6512 0.3216
vn 0.8204 -0.2139 0.5303
vn 0.8239 0.4666 0.3218
vn 0.9638 -0.1422 -0.2255
vn -0.9869 0.0312 -0.1582
vn -0.9129 -0.1788 -0.3669
vn -0.7980 -0.5203 -0.3041
vn -0.7146 -0.6977 0.0515
vn -0.7619 -0.5338 0.3668
vn -0.8955 -0.2167 0.3887
vn -0.9880 0.0142 0.1536
vn -0.6794 0.6053 -0.4147
vn -0.3567 0.1542 -0.9214
vn 0.1485 -0.5995 -0.7865
vn 0.3735 -0.9251 0.0693
vn 0.1355 -0.6104 0.7804
vn -0.3613 0.0561 0.9308
vn -0.7202 0.6007 0.3470
vn 0.5060 0.7918 -0.3420
vn 0.6983 0.3904 -0.6000
vn 0.9105 -0.0334 -0.4122
vn 0.9768 -0.2134 0.0167
vn 0.9049 -0.0783 0.4183
vn 0.7398 0.3456 0.5773
vn 0.5387 0.8073 0.2408
vn -0.9998 0.0215 -0.0018
vn -0.7478 0.6625 -0.0435
vn -0.7330 0.4719 -0.4900
vn -0.7378 0.0427 -0.6737
vn -0.7519 -0.4526 -0.4793
vn -0.7457 -0.6649 0.0422
vn -0.7317 -0.4615 0.5017
vn -0.7385 -0.0193 0.6740
vn -0.7538 0.4634 0.4658
vn -0.0163 0.9990 -0.0421
vn -0.0132 0.6905 -0.7232
vn 0.0003 0.0264 -0.9997
vn 0.0110 -0.7030 -0.7111
vn 0.0163 -0.9990 0.0421
vn 0.0132 -0.6905 0.7232
vn -0.0003 -0.0264 0.9997
vn -0.0110 0.7030 0.7111
vn 0.7457 0.6649 -0.0422
vn 0.7317 0.4615 -0.5017
vn 0.7385 0.0193 -0.6740
vn 0.7538 -0.4634 -0.4658
vn 0.7478 -0.6625 0.0435
vn 0.7330 -0.4719 0.4900
vn 0.7378 -0.0427 0.6737
vn 0.7519 0.4526 0.4793
vn 0.9998 -0.0215 0.0018
# 128 vertex normals

vt 0.0000 1.0000 0.0000
vt 0.0000 0.7500 0.0000
vt 0.1250 0.7500 0.0000
vt 0.1250 1.0000 0.0000
vt 0.2500 0.7500 0.0000
vt 0.2500 1.0000 0.0000
vt 0.3750 0.7500 0.0000
vt 0.3750 1.0000 0.0000
vt 0.5000 0.7500 0.0000
vt 0.5000 1.0000 0.0000
vt 0.6250 0.7500 0.0000
vt 0.6250 1.0000 0.0000
vt 0.7500 0.7500 0.0000
vt 0.7500 1.0000 0.0000
vt 0.8750 0.7500 0.0000
vt 0.8750 1.0000 0.0000
vt 1.0000 0.7500 0.0000
vt 0.0000 0.5000 0.0000
vt 0.1250 0.5000 0.0000
vt 0.2500 0.5000 0.0000
vt 0.3750 0.5000 0.0000
vt 0.5000 0.5000 0.0000
vt 0.6250 0.5000 0.0000
vt 0.7500 0.5000 0.0000
vt 0.8750 0.5000 0.0000
vt 1.0000 0.5000 0.0000
vt 0.0000 0.2500 0.0000
vt 0.1250 0.2500 0.0000
vt 0.2500 0.2500 0.0000
vt 0.3750 0.2500 0.0000
vt 0.5000 0.2500 0.0000
vt 0.6250 0.2500 0.0000
vt 0.7500 0.2500 0.0000
vt 0.8750 0.2500 0.0000
vt 1.0000 0.2500 0.0000
vt 0.0000 0.0000 0.0000
vt 0.1250 0.0000 0.0000
vt 0.2500 0.0000 0.0000
vt 0.3750 0.0000 0.0000
vt 0.5000 0.0000 0.0000
vt 0.6250 0.0000 0.0000
vt 0.7500 0.0000 0.0000
vt 0.8750 0.0000 0.0000
vt 0.0000 0.6667 0.0000
vt 0.1667 0.6667 0.0000
vt 0.1667 1.0000 0.0000
vt 0.3333 0.6667 0.0000
vt 0.3333 1.0000 0.0000
vt 0.5000 0.6667 0.0000
vt 0.6667 0.6667 0.0000
vt 0.6667 1.0000 0.0000
vt 0.8333 0.6667 0.0000
vt 0.8333 1.0000 0.0000
vt 1.0000 0.6667 0.0000
vt 0.0000 0.3333 0.0000
vt 0.1667 0.3333 0.0000
vt 0.3333 0.3333 0.0000
vt 0.5000 0.3333 0.0000
vt 0.6667 0.3333 0.0000
vt 0.8333 0.3333 0.0000
vt 1.0000 0.3333 0.0000
vt 0.1667 0.0000 0.0000
vt 0.3333 0.0000 0.0000
vt 0.6667 0.0000 0.0000
vt 0.8333 0.0000 0.0000
vt 0.0000 0.7143 0.0000
vt 0.1429 0.7143 0.0000
vt 0.1429 1.0000 0.0000
vt 0.2857 0.7143 0.0000
vt 0.2857 1.0000 0.0000
vt 0.4286 0.7143 0.0000
vt 0.4286 1.0000 0.0000
vt 0.5714 0.7143 0.0000
vt 0.5714 1.0000 0.0000
vt 0.7143 0.7143 0.0000
vt 0.7143 1.0000 0.0000
vt 0.8571 0.7143 0.0000
vt 0.8571 1.0000 0.0000
vt 1.0000 0.7143 0.0000
vt 0.0000 0.4286 0.0000
vt 0.1429 0.4286 0.0000
vt 0.2857 0.4286 0.0000
vt 0.4286 0.4286 0.0000
vt 0.5714 0.4286 0.0000
vt 0.7143 0.4286 0.0000
vt 0.8571 0.4286 0.0000
vt 1.0000 0.4286 0.0000
vt 0.0000 0.1429 0.0000
vt 0.1429 0.1429 0.0000
vt 0.2857 0.1429 0.0000
vt 0.4286 0.1429 0.0000
vt 0.5714 0.1429 0.0000
vt 0.7143 0.1429 0.0000
vt 0.8571 0.1429 0.0000
# 94 texture coords

o Sphere012
g Sphere012
usemtl Material__25
s off
f 1/1/1 2/2/1 3/3/1 
f 1/4/2 3/3/2 4/5/2 
f 1/6/3 4/5/3 5/7/3 
f 1/8/4 5/7/4 6/9/4 
f 1/10/5 6/9/5 7/11/5 
f 1/12/6 7/11/6 8/13/6 
f 1/14/7 8/13/7 9/15/7 
f 1/16/8 9/15/8 2/17/8 
f 2/2/9 10/18/9 11/19/9 
f 2/2/10 11/19/10 3/3/10 
f 3/3/11 11/19/11 12/20/11 
f 3/3/12 12/20/12 4/5/12 
f 4/5/13 12/20/13 13/21/13 
f 4/5/14 13/21/14 5/7/14 
f 5/7/15 13/21/15 14/22/15 
f 5/7/15 14/22/15 6/9/15 
f 6/9/16 14/22/16 15/23/16 
f 6/9/16 15/23/16 7/11/16 
f 7/11/17 15/23/17 16/24/17 
f 7/11/18 16/24/18 8/13/18 
f 8/13/19 16/24/19 17/25/19 
f 8/13/20 17/25/20 9/15/20 
f 9/15/21 17/25/21 10/26/21 
f 9/15/21 10/26/21 2/17/21 
f 10/18/22 18/27/22 19/28/22 
f 10/18/23 19/28/23 11/19/23 
f 11/19/24 19/28/24 20/29/24 
f 11/19/24 20/29/24 12/20/24 
f 12/20/25 20/29/25 21/30/25 
f 12/20/26 21/30/26 13/21/26 
f 13/21/27 21/30/27 22/31/27 
f 13/21/27 22/31/27 14/22/27 
f 14/22/28 22/31/28 23/32/28 
f 14/22/28 23/32/28 15/23/28 
f 15/23/29 23/32/29 24/33/29 
f 15/23/30 24/33/30 16/24/30 
f 16/24/31 24/33/31 25/34/31 
f 16/24/32 25/34/32 17/25/32 
f 17/25/33 25/34/33 18/35/33 
f 17/25/33 18/35/33 10/26/33 
f 26/36/34 19/28/34 18/27/34 
f 26/37/35 20/29/35 19/28/35 
f 26/38/36 21/30/36 20/29/36 
f 26/39/37 22/31/37 21/30/37 
f 26/40/38 23/32/38 22/31/38 
f 26/41/39 24/33/39 23/32/39 
f 26/42/40 25/34/40 24/33/40 
f 26/43/41 18/35/41 25/34/41 
s 1
f 27/1/42 28/44/43 29/45/44 
f 27/46/42 29/45/44 30/47/45 
f 27/48/42 30/47/45 31/49/46 
f 27/10/42 31/49/46 32/50/47 
f 27/51/42 32/50/47 33/52/48 
f 27/53/42 33/52/48 28/54/43 
f 28/44/43 34/55/49 35/56/50 
f 28/44/43 35/56/50 29/45/44 
f 29/45/44 35/56/50 36/57/51 
f 29/45/44 36/57/51 30/47/45 
f 30/47/45 36/57/51 37/58/52 
f 30/47/45 37/58/52 31/49/46 
f 31/49/46 37/58/52 38/59/53 
f 31/49/46 38/59/53 32/50/47 
f 32/50/47 38/59/53 39/60/54 
f 32/50/47 39/60/54 33/52/48 
f 33/52/48 39/60/54 34/61/49 
f 33/52/48 34/61/49 28/54/43 
f 40/36/55 35/56/50 34/55/49 
f 40/62/55 36/57/51 35/56/50 
f 40/63/55 37/58/52 36/57/51 
f 40/40/55 38/59/53 37/58/52 
f 40/64/55 39/60/54 38/59/53 
f 40/65/55 34/61/49 39/60/54 
f 41/1/56 42/2/57 43/3/58 
f 41/4/56 43/3/58 44/5/59 
f 41/6/56 44/5/59 45/7/60 
f 41/8/56 45/7/60 46/9/61 
f 41/10/56 46/9/61 47/11/62 
f 41/12/56 47/11/62 48/13/63 
f 41/14/56 48/13/63 49/15/64 
f 41/16/56 49/15/64 42/17/57 
f 42/2/57 50/18/65 51/19/66 
f 42/2/57 51/19/66 43/3/58 
f 43/3/58 51/19/66 52/20/67 
f 43/3/58 52/20/67 44/5/59 
f 44/5/59 52/20/67 53/21/68 
f 44/5/59 53/21/68 45/7/60 
f 45/7/60 53/21/68 54/22/69 
f 45/7/60 54/22/69 46/9/61 
f 46/9/61 54/22/69 55/23/70 
f 46/9/61 55/23/70 47/11/62 
f 47/11/62 55/23/70 56/24/71 
f 47/11/62 56/24/71 48/13/63 
f 48/13/63 56/24/71 57/25/72 
f 48/13/63 57/25/72 49/15/64 
f 49/15/64 57/25/72 50/26/65 
f 49/15/64 50/26/65 42/17/57 
f 50/18/65 58/27/73 59/28/74 
f 50/18/65 59/28/74 51/19/66 
f 51/19/66 59/28/74 60/29/75 
f 51/19/66 60/29/75 52/20/67 
f 52/20/67 60/29/75 61/30/76 
f 52/20/67 61/30/76 53/21/68 
f 53/21/68 61/30/76 62/31/77 
f 53/21/68 62/31/77 54/22/69 
f 54/22/69 62/31/77 63/32/78 
f 54/22/69 63/32/78 55/23/70 
f 55/23/70 63/32/78 64/33/79 
f 55/23/70 64/33/79 56/24/71 
f 56/24/71 64/33/79 65/34/80 
f 56/24/71 65/34/80 57/25/72 
f 57/25/72 65/34/80 58/35/73 
f 57/25/72 58/35/73 50/26/65 
f 66/36/81 59/28/74 58/27/73 
f 66/37/81 60/29/75 59/28/74 
f 66/38/81 61/30/76 60/29/75 
f 66/39/81 62/31/77 61/30/76 
f 66/40/81 63/32/78 62/31/77 
f 66/41/81 64/33/79 63/32/78 
f 66/42/81 65/34/80 64/33/79 
f 66/43/81 58/35/73 65/34/80 
s off
f 67/1/82 68/66/82 69/67/82 
f 67/68/83 69/67/83 70/69/83 
f 67/70/84 70/69/84 71/71/84 
f 67/72/85 71/71/85 72/73/85 
f 67/74/86 72/73/86 73/75/86 
f 67/76/87 73/75/87 74/77/87 
f 67/78/88 74/77/88 68/79/88 
f 68/66/89 75/80/89 76/81/89 
f 68/66/89 76/81/89 69/67/89 
f 69/67/90 76/81/90 77/82/90 
f 69/67/90 77/82/90 70/69/90 
f 70/69/91 77/82/91 78/83/91 
f 70/69/91 78/83/91 71/71/91 
f 71/71/92 78/83/92 79/84/92 
f 71/71/92 79/84/92 72/73/92 
f 72/73/93 79/84/93 80/85/93 
f 72/73/93 80/85/93 73/75/93 
f 73/75/94 80/85/94 81/86/94 
f 73/75/94 81/86/94 74/77/94 
f 74/77/95 81/86/95 75/87/95 
f 74/77/95 75/87/95 68/79/95 
f 82/88/96 76/81/96 75/80/96 
f 82/89/97 77/82/97 76/81/97 
f 82/90/98 78/83/98 77/82/98 
f 82/91/99 79/84/99 78/83/99 
f 82/92/100 80/85/100 79/84/100 
f 82/93/101 81/86/101 80/85/101 
f 82/94/102 75/87/102 81/86/102 
s 1
f 83/1/103 84/2/104 85/3/105 
f 83/4/103 85/3/105 86/5/106 
f 83/6/103 86/5/106 87/7/107 
f 83/8/103 87/7/107 88/9/108 
f 83/10/103 88/9/108 89/11/109 
f 83/12/103 89/11/109 90/13/110 
f 83/14/103 90/13/110 91/15/111 
f 83/16/103 91/15/111 84/17/104 
f 84/2/104 92/18/112 93/19/113 
f 84/2/104 93/19/113 85/3/105 
f 85/3/105 93/19/113 94/20/114 
f 85/3/105 94/20/114 86/5/106 
f 86/5/106 94/20/114 95/21/115 
f 86/5/106 95/21/115 87/7/107 
f 87/7/107 95/21/115 96/22/116 
f 87/7/107 96/22/116 88/9/108 
f 88/9/108 96/22/116 97/23/117 
f 88/9/108 97/23/117 89/11/109 
f 89/11/109 97/23/117 98/24/118 
f 89/11/109 98/24/118 90/13/110 
f 90/13/110 98/24/118 99/25/119 
f 90/13/110 99/25/119 91/15/111 
f 91/15/111 99/25/119 92/26/112 
f 91/15/111 92/26/112 84/17/104 
f 92/18/112 100/27/120 101/28/121 
f 92/18/112 101/28/121 93/19/113 
f 93/19/113 101/28/121 102/29/122 
f 93/19/113 102/29/122 94/20/114 
f 94/20/114 102/29/122 103/30/123 
f 94/20/114 103/30/123 95/21/115 
f 95/21/115 103/30/123 104/31/124 
f 95/21/115 104/31/124 96/22/116 
f 96/22/116 104/31/124 105/32/125 
f 96/22/116 105/32/125 97/23/117 
f 97/23/117 105/32/125 106/33/126 
f 97/23/117 106/33/126 98/24/118 
f 98/24/118 106/33/126 107/34/127 
f 98/24/118 107/34/127 99/25/119 
f 99/25/119 107/34/127 100/35/120 
f 99/25/119 100/35/120 92/26/112 
f 108/36/128 101/28/121 100/27/120 
f 108/37/128 102/29/122 101/28/121 
f 108/38/128 103/30/123 102/29/122 
f 108/39/128 104/31/124 103/30/123 
f 108/40/128 105/32/125 104/31/124 
f 108/41/128 106/33/126 105/32/125 
f 108/42/128 107/34/127 106/33/126 
f 108/43/128 100/35/120 107/34/127 
# 196 faces

